<svg width="162" height="52" viewBox="0 0 162 52" xmlns="http://www.w3.org/2000/svg"><title>ReCAP</title><path d="M9.896 22.24h2.21c2.705 0 4.627-.575 5.768-1.725 1.14-1.15 1.71-3.12 1.71-5.904 0-2.683-.494-4.605-1.483-5.766-.988-1.16-2.805-1.74-5.45-1.74H9.897V22.24zM.754 51V.807h11.504c2.644 0 4.914.217 6.81.65 1.898.434 3.548 1.16 4.95 2.18 1.404 1.02 2.453 2.402 3.15 4.148.696 1.745 1.044 3.88 1.044 6.402 0 3.15-.47 5.722-1.408 7.72-.938 1.998-2.487 3.45-4.647 4.36L29.12 51h-9.173l-5.994-22.917H9.896V51H.754zM43.93 29.264h6.115v-3.42c0-1.818-.227-3.12-.68-3.907-.455-.787-1.257-1.18-2.408-1.18-1.17 0-1.968.444-2.39 1.332-.425.887-.637 2.5-.637 4.843v2.33zm3.118 22.31c-4.097 0-7.044-1.13-8.84-3.39-1.796-2.26-2.694-5.6-2.694-10.02V28.022c0-4.42.908-7.76 2.724-10.02 1.817-2.26 4.743-3.39 8.78-3.39 2.14 0 3.94.312 5.404.938 1.463.625 2.603 1.574 3.42 2.846.818 1.27 1.398 2.74 1.74 4.404.344 1.665.516 3.668.516 6.01v4.692H43.93v5.39c0 .745.005 1.326.015 1.74.01.413.045.913.106 1.498.062.585.157 1.04.29 1.362.13.323.306.65.528.984.222.333.515.57.878.712.364.14.787.21 1.272.21 1.13 0 1.917-.397 2.36-1.194.445-.798.667-1.953.667-3.467V38.68h8.023V40.1c0 3.713-.924 6.554-2.77 8.522-1.847 1.967-4.597 2.95-8.25 2.95zm32.368.03c-2.16 0-4.066-.27-5.72-.816-1.656-.545-3.024-1.302-4.103-2.27-1.08-.97-1.958-2.17-2.634-3.603-.677-1.433-1.152-2.972-1.424-4.617s-.41-3.496-.41-5.555V17.245c0-2.18.143-4.112.425-5.797.284-1.685.758-3.25 1.424-4.693.666-1.443 1.54-2.628 2.62-3.557 1.078-.928 2.44-1.655 4.086-2.18 1.644-.524 3.557-.787 5.736-.787 2.503 0 4.642.334 6.418 1 1.776.666 3.18 1.645 4.208 2.937 1.03 1.292 1.776 2.8 2.24 4.526.465 1.725.697 3.74.697 6.04v4.298h-8.81v-4.267c0-2.503-.132-4.188-.394-5.056-.525-1.695-1.807-2.603-3.845-2.725h-.483c-.767 0-1.438.09-2.014.273-.575.182-1.044.47-1.407.863-.364.393-.656.812-.878 1.256-.222.444-.39 1.024-.5 1.74-.11.717-.18 1.378-.212 1.984-.03.605-.045 1.372-.045 2.3V36.65c0 2.947.37 5.046 1.106 6.297.737 1.252 2.054 1.877 3.95 1.877.647 0 1.217-.075 1.71-.227.496-.15.91-.343 1.242-.575.333-.232.616-.565.848-1 .232-.433.41-.837.53-1.21.12-.373.212-.893.272-1.56.06-.665.096-1.23.106-1.694.01-.465.015-1.1.015-1.908v-4.48h8.81v4.117c0 1.877-.132 3.562-.395 5.056-.262 1.493-.71 2.896-1.347 4.208-.636 1.313-1.458 2.402-2.467 3.27-1.008.868-2.3 1.55-3.874 2.044-1.574.494-3.4.74-5.48.74zm30.492-18.223h6.72l-3.36-20.615-3.36 20.616zM98.253 51L108.455.807h9.536L128.164 51h-8.507l-2.028-11.655h-8.69L106.88 51h-8.627zm45.537-28.85h2.936c2.584 0 4.33-.51 5.238-1.53.908-1.02 1.362-2.89 1.362-5.615 0-1.554-.06-2.755-.182-3.603-.12-.847-.403-1.62-.847-2.316-.444-.696-1.105-1.175-1.983-1.438-.878-.262-2.064-.393-3.557-.393h-2.967V22.15zM134.647 51V.807h14.44c8.558 0 12.837 4.753 12.837 14.258 0 4.663-1.17 8.078-3.512 10.248-2.34 2.17-5.64 3.254-9.9 3.254h-4.722V51h-9.143z" fill="#000" fill-rule="evenodd"/></svg>