<svg id="Layer_1" data-name="Layer 1" xmlns="http://www.w3.org/2000/svg" viewBox="0 0 275.82 114.82"><defs><style>.cls-1{fill:#24588d;}.cls-2{fill:#b8d8eb;}.cls-3{fill:#ff6c0e;}.cls-4{fill:#aa182c;}.cls-5{fill:#cf3339;}</style></defs><title>ReCap Logo</title><path class="cls-1" d="M236.82,426.8V428h-3.74v9.71h-1.31V428H228V426.8Z" transform="translate(-164.34 -336.76)"/><path class="cls-1" d="M239.69,426.3v4.54a3,3,0,0,1,2.68-1.39c1.81,0,3.07,1.13,3.07,3.47v4.81h-1.29V433a2,2,0,0,0-2.06-2.26,2.4,2.4,0,0,0-2.4,2.52v4.52h-1.3V426.3Z" transform="translate(-164.34 -336.76)"/><path class="cls-1" d="M251.32,429.45a3.8,3.8,0,0,1,3.71,4.09,5,5,0,0,1,0,.66h-6.33a2.74,2.74,0,0,0,2.91,2.54,6.36,6.36,0,0,0,2.45-.54l.43,1a6.76,6.76,0,0,1-2.91.7,4.11,4.11,0,0,1-4.22-4.18A4,4,0,0,1,251.32,429.45Zm2.49,3.75a2.44,2.44,0,0,0-2.41-2.61,2.75,2.75,0,0,0-2.74,2.61Z" transform="translate(-164.34 -336.76)"/><path class="cls-1" d="M266,426.8a3.16,3.16,0,0,1,3.15,3.15,3.11,3.11,0,0,1-2.28,3l2.7,4.76H268l-2.53-4.61h-3v4.61H261.2V426.8Zm-3.46,5.12H266a2,2,0,0,0,1.86-2,2,2,0,0,0-2.23-1.93h-3.09Z" transform="translate(-164.34 -336.76)"/><path class="cls-1" d="M274.69,429.45a3.8,3.8,0,0,1,3.72,4.09,4,4,0,0,1-.05.66H272a2.73,2.73,0,0,0,2.9,2.54,6.32,6.32,0,0,0,2.45-.54l.44,1a6.77,6.77,0,0,1-2.92.7,4.1,4.1,0,0,1-4.21-4.18A4,4,0,0,1,274.69,429.45Zm2.5,3.75a2.44,2.44,0,0,0-2.42-2.61A2.74,2.74,0,0,0,272,433.2Z" transform="translate(-164.34 -336.76)"/><path class="cls-1" d="M279.77,437.2l.35-1a6.59,6.59,0,0,0,2.52.59c1.31,0,1.92-.5,1.92-1.22,0-1.9-4.73-.86-4.73-3.81,0-1.39,1.1-2.31,2.92-2.31a6.87,6.87,0,0,1,2.69.58l-.38,1a6.25,6.25,0,0,0-2.23-.5c-1.11,0-1.79.45-1.79,1.18,0,1.88,4.74.88,4.74,3.83,0,1.43-1.19,2.32-3.09,2.32A6.94,6.94,0,0,1,279.77,437.2Z" transform="translate(-164.34 -336.76)"/><path class="cls-1" d="M291.15,429.45a3.8,3.8,0,0,1,3.72,4.09,4,4,0,0,1-.05.66H288.5a2.73,2.73,0,0,0,2.9,2.54,6.32,6.32,0,0,0,2.45-.54l.44,1a6.77,6.77,0,0,1-2.92.7,4.1,4.1,0,0,1-4.21-4.18A4,4,0,0,1,291.15,429.45Zm2.5,3.75a2.44,2.44,0,0,0-2.42-2.61,2.74,2.74,0,0,0-2.73,2.61Z" transform="translate(-164.34 -336.76)"/><path class="cls-1" d="M299.73,429.45c2,0,3.12.82,3.12,2.64v4.17c0,.28.2.34.43.34s.44,0,.61,0v1a4.31,4.31,0,0,1-1.14.18.91.91,0,0,1-1-1v-.25a2.85,2.85,0,0,1-2.7,1.42c-1.67,0-3-.87-3-2.64s1.58-2.48,3.44-2.48a13.48,13.48,0,0,1,2.15.22v-.72c0-1.39-.89-1.73-2.11-1.73a10.25,10.25,0,0,0-2.43.33l-.27-.92A9.47,9.47,0,0,1,299.73,429.45Zm-.13,4.33c-1,0-2.37.18-2.37,1.46a1.73,1.73,0,0,0,1.93,1.6,2.36,2.36,0,0,0,2.47-2.06V434A9,9,0,0,0,299.6,433.78Z" transform="translate(-164.34 -336.76)"/><path class="cls-1" d="M306.5,429.66l.19,1.43a2.75,2.75,0,0,1,2.7-1.48v1.28a2.29,2.29,0,0,0-2.6,2.42v4.42h-1.27v-8.07Z" transform="translate(-164.34 -336.76)"/><path class="cls-1" d="M310.28,433.67a4.26,4.26,0,0,1,4.3-4.22A5.5,5.5,0,0,1,317,430l-.46,1a5,5,0,0,0-1.92-.41,3.08,3.08,0,0,0,0,6.15,5.28,5.28,0,0,0,1.92-.4l.46,1a5.5,5.5,0,0,1-2.45.58A4.26,4.26,0,0,1,310.28,433.67Z" transform="translate(-164.34 -336.76)"/><path class="cls-1" d="M320.14,426.3v4.54a3,3,0,0,1,2.68-1.39c1.81,0,3.08,1.13,3.08,3.47v4.81h-1.3V433a2,2,0,0,0-2.06-2.26,2.4,2.4,0,0,0-2.4,2.52v4.52h-1.3V426.3Z" transform="translate(-164.34 -336.76)"/><path class="cls-1" d="M331.93,432.26a5.66,5.66,0,0,1,5.71-5.62,7.76,7.76,0,0,1,3.28.83l-.47,1a7,7,0,0,0-2.78-.63,4.44,4.44,0,0,0,0,8.87,7,7,0,0,0,2.78-.63l.47,1a7.62,7.62,0,0,1-3.28.82A5.66,5.66,0,0,1,331.93,432.26Z" transform="translate(-164.34 -336.76)"/><path class="cls-1" d="M346,429.45a4.22,4.22,0,1,1-4.17,4.22A4.15,4.15,0,0,1,346,429.45Zm-2.86,4.22a2.87,2.87,0,1,0,2.86-3.08A2.94,2.94,0,0,0,343.17,433.67Z" transform="translate(-164.34 -336.76)"/><path class="cls-1" d="M353.49,426.3v9.9a.34.34,0,0,0,.39.37,6,6,0,0,0,.63-.05v1a4.14,4.14,0,0,1-1.13.18,1.15,1.15,0,0,1-1.18-1.28V426.3Z" transform="translate(-164.34 -336.76)"/><path class="cls-1" d="M357.61,426.3v9.9a.34.34,0,0,0,.39.37,6,6,0,0,0,.63-.05v1a4.14,4.14,0,0,1-1.13.18,1.15,1.15,0,0,1-1.18-1.28V426.3Z" transform="translate(-164.34 -336.76)"/><path class="cls-1" d="M363.89,429.45a3.8,3.8,0,0,1,3.71,4.09,5,5,0,0,1,0,.66h-6.32a2.73,2.73,0,0,0,2.9,2.54,6.36,6.36,0,0,0,2.45-.54l.44,1a6.81,6.81,0,0,1-2.92.7,4.11,4.11,0,0,1-4.22-4.18A4,4,0,0,1,363.89,429.45Zm2.5,3.75a2.44,2.44,0,0,0-2.42-2.61,2.74,2.74,0,0,0-2.73,2.61Z" transform="translate(-164.34 -336.76)"/><path class="cls-1" d="M369,433.67a4.26,4.26,0,0,1,4.29-4.22,5.47,5.47,0,0,1,2.45.58l-.45,1a5,5,0,0,0-1.92-.41,3.08,3.08,0,0,0,0,6.15,5.28,5.28,0,0,0,1.92-.4l.45,1a5.47,5.47,0,0,1-2.45.58A4.25,4.25,0,0,1,369,433.67Z" transform="translate(-164.34 -336.76)"/><path class="cls-1" d="M379.22,427.27v2.34h2v1h-2v4.53c0,.92.3,1.51,1.21,1.51a5.75,5.75,0,0,0,1-.11l.2.93a4.34,4.34,0,0,1-1.44.28c-1.73,0-2.27-.94-2.27-2.72v-4.42h-1.19v-.79l1.19-.17.2-2.36Z" transform="translate(-164.34 -336.76)"/><path class="cls-1" d="M384.58,429.61v8.12h-1.29v-7l-.85-.24v-.91Zm.06-2.18a.88.88,0,0,1-.87.87.86.86,0,0,1,0-1.72A.87.87,0,0,1,384.64,427.43Z" transform="translate(-164.34 -336.76)"/><path class="cls-1" d="M390.69,429.45a4.22,4.22,0,1,1-4.17,4.22A4.15,4.15,0,0,1,390.69,429.45Zm-2.86,4.22a2.87,2.87,0,1,0,2.86-3.08A2.94,2.94,0,0,0,387.83,433.67Z" transform="translate(-164.34 -336.76)"/><path class="cls-1" d="M397.82,429.61,398,431a3,3,0,0,1,2.78-1.57c1.81,0,3.07,1.13,3.07,3.47v4.81H402.6V433a2,2,0,0,0-2.06-2.26,2.41,2.41,0,0,0-2.41,2.52v4.52h-1.29v-8.12Z" transform="translate(-164.34 -336.76)"/><path class="cls-1" d="M405.79,437.2l.34-1a6.65,6.65,0,0,0,2.53.59c1.31,0,1.92-.5,1.92-1.22,0-1.9-4.73-.86-4.73-3.81,0-1.39,1.09-2.31,2.92-2.31a6.77,6.77,0,0,1,2.68.58l-.37,1a6.25,6.25,0,0,0-2.23-.5c-1.11,0-1.8.45-1.8,1.18,0,1.88,4.75.88,4.75,3.83,0,1.43-1.19,2.32-3.09,2.32A6.85,6.85,0,0,1,405.79,437.2Z" transform="translate(-164.34 -336.76)"/><path class="cls-1" d="M232.72,443.15c2,0,3.12.81,3.12,2.64V450c0,.28.2.35.44.35s.43,0,.6-.05v1a4.42,4.42,0,0,1-1.14.17.91.91,0,0,1-1-1v-.24a2.85,2.85,0,0,1-2.7,1.42c-1.67,0-3-.88-3-2.64s1.58-2.48,3.44-2.48a15,15,0,0,1,2.15.21V446c0-1.39-.89-1.74-2.11-1.74a10.79,10.79,0,0,0-2.43.33l-.27-.92A9.5,9.5,0,0,1,232.72,443.15Zm-.13,4.32c-1,0-2.37.19-2.37,1.47a1.73,1.73,0,0,0,1.93,1.59,2.36,2.36,0,0,0,2.47-2.06v-.76A8.23,8.23,0,0,0,232.59,447.47Z" transform="translate(-164.34 -336.76)"/><path class="cls-1" d="M239.51,443.3l.22,1.41a3,3,0,0,1,2.78-1.56c1.81,0,3.07,1.12,3.07,3.46v4.81h-1.29v-4.78a2,2,0,0,0-2.06-2.26,2.41,2.41,0,0,0-2.41,2.53v4.51h-1.29V443.3Z" transform="translate(-164.34 -336.76)"/><path class="cls-1" d="M255.54,440v11.42h-1l-.17-1.48a3.48,3.48,0,0,1-3,1.64,3.92,3.92,0,0,1-3.87-4.22,4,4,0,0,1,3.87-4.21,3.45,3.45,0,0,1,2.89,1.48V440Zm-6.74,7.36a2.8,2.8,0,1,0,2.78-3.07A2.87,2.87,0,0,0,248.8,447.36Z" transform="translate(-164.34 -336.76)"/><path class="cls-1" d="M267,440.49a3.33,3.33,0,0,1,0,6.64h-3.37v4.29h-1.31V440.49Zm-3.33,5.42H267a2.1,2.1,0,0,0-.36-4.18h-3Z" transform="translate(-164.34 -336.76)"/><path class="cls-1" d="M272.88,443.35l.19,1.44a2.75,2.75,0,0,1,2.7-1.49v1.28a2.29,2.29,0,0,0-2.61,2.42v4.42H271.9v-8.07Z" transform="translate(-164.34 -336.76)"/><path class="cls-1" d="M280.67,443.15a4.12,4.12,0,0,1,3.67,4.74H278a2.73,2.73,0,0,0,2.9,2.55,6.37,6.37,0,0,0,2.45-.55l.44,1a6.66,6.66,0,0,1-2.92.71,4.1,4.1,0,0,1-4.21-4.19A4,4,0,0,1,280.67,443.15Zm2.5,3.74a2.44,2.44,0,0,0-2.42-2.6,2.73,2.73,0,0,0-2.73,2.6Z" transform="translate(-164.34 -336.76)"/><path class="cls-1" d="M285.75,450.89l.34-1a6.71,6.71,0,0,0,2.53.59c1.31,0,1.92-.5,1.92-1.21,0-1.91-4.73-.86-4.73-3.81,0-1.39,1.09-2.31,2.92-2.31a6.6,6.6,0,0,1,2.68.58l-.37,1a6.25,6.25,0,0,0-2.23-.5c-1.11,0-1.8.45-1.8,1.19,0,1.87,4.75.87,4.75,3.82,0,1.44-1.19,2.33-3.09,2.33A6.71,6.71,0,0,1,285.75,450.89Z" transform="translate(-164.34 -336.76)"/><path class="cls-1" d="M297.13,443.15a3.8,3.8,0,0,1,3.71,4.09,4.72,4.72,0,0,1,0,.65h-6.32a2.73,2.73,0,0,0,2.9,2.55,6.37,6.37,0,0,0,2.45-.55l.44,1a6.66,6.66,0,0,1-2.92.71,4.11,4.11,0,0,1-4.22-4.19A4,4,0,0,1,297.13,443.15Zm2.5,3.74a2.44,2.44,0,0,0-2.42-2.6,2.73,2.73,0,0,0-2.73,2.6Z" transform="translate(-164.34 -336.76)"/><path class="cls-1" d="M303.67,443.35l.19,1.44a2.76,2.76,0,0,1,2.7-1.49v1.28A2.29,2.29,0,0,0,304,447v4.42h-1.26v-8.07Z" transform="translate(-164.34 -336.76)"/><path class="cls-1" d="M308.61,443.3l2.25,6.67h0l2.29-6.67h1.33l-3,8.12h-1.27l-3-8.12Z" transform="translate(-164.34 -336.76)"/><path class="cls-1" d="M318.85,443.15c2,0,3.12.81,3.12,2.64V450c0,.28.2.35.44.35s.44,0,.61-.05v1a4.5,4.5,0,0,1-1.14.17.91.91,0,0,1-1-1v-.24a2.85,2.85,0,0,1-2.7,1.42c-1.67,0-3-.88-3-2.64s1.57-2.48,3.43-2.48a15,15,0,0,1,2.15.21V446c0-1.39-.89-1.74-2.1-1.74a10.87,10.87,0,0,0-2.44.33l-.26-.92A9.43,9.43,0,0,1,318.85,443.15Zm-.12,4.32c-1,0-2.38.19-2.38,1.47a1.73,1.73,0,0,0,1.94,1.59,2.35,2.35,0,0,0,2.46-2.06v-.76A8.12,8.12,0,0,0,318.73,447.47Z" transform="translate(-164.34 -336.76)"/><path class="cls-1" d="M326.38,441v2.34h2v1h-2v4.52c0,.92.29,1.52,1.2,1.52a6.84,6.84,0,0,0,1-.11l.2.92a4.09,4.09,0,0,1-1.43.28c-1.74,0-2.28-.94-2.28-2.72v-4.41h-1.19v-.8l1.19-.17.2-2.36Z" transform="translate(-164.34 -336.76)"/><path class="cls-1" d="M331.73,443.3v8.12h-1.29v-7l-.84-.25v-.91Zm.07-2.18a.89.89,0,0,1-.88.87.86.86,0,0,1,0-1.71A.88.88,0,0,1,331.8,441.12Z" transform="translate(-164.34 -336.76)"/><path class="cls-1" d="M337.84,443.15a4.22,4.22,0,1,1-4.17,4.21A4.16,4.16,0,0,1,337.84,443.15ZM335,447.36a2.87,2.87,0,1,0,2.86-3.07A3,3,0,0,0,335,447.36Z" transform="translate(-164.34 -336.76)"/><path class="cls-1" d="M345,443.3l.21,1.41a3,3,0,0,1,2.78-1.56c1.81,0,3.08,1.12,3.08,3.46v4.81h-1.3v-4.78a2,2,0,0,0-2.06-2.26,2.41,2.41,0,0,0-2.4,2.53v4.51H344V443.3Z" transform="translate(-164.34 -336.76)"/><path class="cls-1" d="M357.09,446a5.66,5.66,0,0,1,5.72-5.62,7.4,7.4,0,0,1,3.27.83l-.46,1a7,7,0,0,0-2.78-.63,4.44,4.44,0,0,0,0,8.87,7.07,7.07,0,0,0,2.78-.62l.46,1a7.53,7.53,0,0,1-3.27.83A5.66,5.66,0,0,1,357.09,446Z" transform="translate(-164.34 -336.76)"/><path class="cls-1" d="M371.19,443.15a4.22,4.22,0,1,1-4.17,4.21A4.15,4.15,0,0,1,371.19,443.15Zm-2.85,4.21a2.87,2.87,0,1,0,2.85-3.07A2.94,2.94,0,0,0,368.34,447.36Z" transform="translate(-164.34 -336.76)"/><path class="cls-1" d="M378.33,443.3l.22,1.41a3,3,0,0,1,2.78-1.56c1.81,0,3.07,1.12,3.07,3.46v4.81h-1.29v-4.78a2,2,0,0,0-2.06-2.26,2.41,2.41,0,0,0-2.41,2.53v4.51h-1.29V443.3Z" transform="translate(-164.34 -336.76)"/><path class="cls-1" d="M386.29,450.89l.35-1a6.6,6.6,0,0,0,2.53.59c1.31,0,1.92-.5,1.92-1.21,0-1.91-4.73-.86-4.73-3.81,0-1.39,1.09-2.31,2.91-2.31a6.65,6.65,0,0,1,2.69.58l-.37,1a6.27,6.27,0,0,0-2.24-.5c-1.1,0-1.79.45-1.79,1.19,0,1.87,4.74.87,4.74,3.82,0,1.44-1.18,2.33-3.09,2.33A6.75,6.75,0,0,1,386.29,450.89Z" transform="translate(-164.34 -336.76)"/><path class="cls-1" d="M397.85,443.15a4.22,4.22,0,1,1-4.17,4.21A4.15,4.15,0,0,1,397.85,443.15ZM395,447.36a2.87,2.87,0,1,0,2.86-3.07A2.94,2.94,0,0,0,395,447.36Z" transform="translate(-164.34 -336.76)"/><path class="cls-1" d="M405,443.35l.19,1.44a2.75,2.75,0,0,1,2.7-1.49v1.28a2.29,2.29,0,0,0-2.61,2.42v4.42H404v-8.07Z" transform="translate(-164.34 -336.76)"/><path class="cls-1" d="M411.28,441v2.34h2v1h-2v4.52c0,.92.29,1.52,1.2,1.52a6.84,6.84,0,0,0,1-.11l.2.92a4.09,4.09,0,0,1-1.43.28c-1.74,0-2.28-.94-2.28-2.72v-4.41h-1.19v-.8l1.19-.17.2-2.36Z" transform="translate(-164.34 -336.76)"/><path class="cls-1" d="M416.63,443.3v8.12h-1.29v-7l-.85-.25v-.91Zm.07-2.18a.89.89,0,0,1-.88.87.86.86,0,0,1,0-1.71A.88.88,0,0,1,416.7,441.12Z" transform="translate(-164.34 -336.76)"/><path class="cls-1" d="M420.29,443.3v4.78a2,2,0,0,0,2.23,2.26,2.2,2.2,0,0,0,2.21-2.23V443.3H426v8.12h-1l-.17-1.28a3,3,0,0,1-2.63,1.44c-2.2,0-3.26-1.24-3.26-3.39V443.3Z" transform="translate(-164.34 -336.76)"/><path class="cls-1" d="M429.49,443.3l.21,1.31a2.62,2.62,0,0,1,2.41-1.46,2.58,2.58,0,0,1,2.49,1.65,2.94,2.94,0,0,1,2.56-1.65c2,0,3,1.12,3,3.13v5.14h-1.3v-5.17a1.7,1.7,0,0,0-1.84-1.87,2.06,2.06,0,0,0-2.06,2.2v4.84h-1.28v-5.23a1.72,1.72,0,0,0-1.84-1.81,2.07,2.07,0,0,0-2,2.19v4.85h-1.3V443.3Z" transform="translate(-164.34 -336.76)"/><path class="cls-1" d="M231.48,381.57a11.71,11.71,0,0,1,11.65,11.65,11.54,11.54,0,0,1-7.79,11l9.31,16.58h-7.12L229,404.94h-8.8v15.85h-6.16V381.57Zm-11.27,17.76h11.27c3,0,5.6-3,5.6-6.11,0-4.37-3.81-5.88-7.45-5.88h-9.42Z" transform="translate(-164.34 -336.76)"/><path class="cls-1" d="M262.81,391.15c8.8,0,13.34,7.23,13.34,14.79a14.29,14.29,0,0,1-.23,2.75H254.68c.34,4.87,4.37,7.51,9,7.51a21.21,21.21,0,0,0,8.51-2l2.08,4.49a23.37,23.37,0,0,1-10.71,2.58c-8.85,0-15.18-6.22-15.18-14.85S254.29,391.15,262.81,391.15Zm7.62,12.94c-.17-3.92-2.19-7.62-7.28-7.62a8.26,8.26,0,0,0-8.52,7.62Z" transform="translate(-164.34 -336.76)"/><path class="cls-1" d="M281.14,401.18c0-11,9-20.12,20.84-20.12a26,26,0,0,1,12,3.09l-2.24,4.59a24.59,24.59,0,0,0-9.69-2.13c-8.29,0-14.35,6.22-14.35,14.57s6.06,14.57,14.35,14.57a24.59,24.59,0,0,0,9.69-2.13l2.24,4.59a26,26,0,0,1-12,3.09C290.16,421.3,281.14,412.22,281.14,401.18Z" transform="translate(-164.34 -336.76)"/><path class="cls-1" d="M337.8,381.06l14.84,39.73h-6.55l-3.53-10.31H326.7l-3.59,10.31h-6.55l14.85-39.73Zm-9.59,24.43h12.84l-6.5-18.38Z" transform="translate(-164.34 -336.76)"/><path class="cls-1" d="M375.07,381.57c6.44,0,11.71,5.83,11.71,12.16S381.57,406,375.23,406H364.31v14.79h-6.17V381.57Zm-10.76,18.6h10.76c3,0,5.54-3.3,5.54-6.44,0-4.37-3.53-6.33-7.34-6.33h-9Z" transform="translate(-164.34 -336.76)"/><path class="cls-2" d="M217.66,443.41c-1.23,0-2.47,0-3.68-.12l.89-13c.92.07,1.86.1,2.79.1Z" transform="translate(-164.34 -336.76)"/><path class="cls-3" d="M207.08,442.36a53.45,53.45,0,0,1-6.73-1.82l4.21-12.28a40.09,40.09,0,0,0,5.08,1.38Z" transform="translate(-164.34 -336.76)"/><path class="cls-4" d="M193.92,437.85a53.34,53.34,0,0,1-6-3.51l7.25-10.76a41.46,41.46,0,0,0,4.55,2.65Z" transform="translate(-164.34 -336.76)"/><path class="cls-2" d="M182.39,430.08a53,53,0,0,1-4.9-4.93l9.77-8.53a38.52,38.52,0,0,0,3.72,3.73Z" transform="translate(-164.34 -336.76)"/><path class="cls-5" d="M173.26,419.63a52.43,52.43,0,0,1-3.47-6l11.64-5.72a39.88,39.88,0,0,0,2.63,4.56Z" transform="translate(-164.34 -336.76)"/><path class="cls-3" d="M167.13,407.15a53.34,53.34,0,0,1-1.79-6.73l12.73-2.5a40,40,0,0,0,1.35,5.08Z" transform="translate(-164.34 -336.76)"/><path class="cls-4" d="M164.44,393.52c-.07-1.14-.1-2.3-.1-3.44s0-2.34.11-3.5l13,.83q-.09,1.33-.09,2.67c0,.87,0,1.75.08,2.62Z" transform="translate(-164.34 -336.76)"/><path class="cls-2" d="M178.08,382.19l-12.73-2.52a53.83,53.83,0,0,1,1.8-6.73l12.29,4.16A40.62,40.62,0,0,0,178.08,382.19Z" transform="translate(-164.34 -336.76)"/><path class="cls-3" d="M257.2,382a38.52,38.52,0,0,0-1.39-5.08l12.27-4.24a55.62,55.62,0,0,1,1.84,6.72Z" transform="translate(-164.34 -336.76)"/><path class="cls-5" d="M181.46,372.24l-11.64-5.74a54.87,54.87,0,0,1,3.49-6l10.78,7.21A41.42,41.42,0,0,0,181.46,372.24Z" transform="translate(-164.34 -336.76)"/><path class="cls-5" d="M253.78,372.05a41.62,41.62,0,0,0-2.67-4.55l10.75-7.27a53.93,53.93,0,0,1,3.52,6Z" transform="translate(-164.34 -336.76)"/><path class="cls-3" d="M187.3,363.5,177.54,355a53.13,53.13,0,0,1,4.92-4.92l8.57,9.74A41,41,0,0,0,187.3,363.5Z" transform="translate(-164.34 -336.76)"/><path class="cls-2" d="M247.88,363.34a40.92,40.92,0,0,0-3.74-3.71l8.52-9.79a55.71,55.71,0,0,1,4.94,4.9Z" transform="translate(-164.34 -336.76)"/><path class="cls-4" d="M195.2,356.56,188,345.78a53.69,53.69,0,0,1,6-3.49l5.77,11.62A40.54,40.54,0,0,0,195.2,356.56Z" transform="translate(-164.34 -336.76)"/><path class="cls-4" d="M240,356.43a41.48,41.48,0,0,0-4.57-2.62l5.7-11.65a54.09,54.09,0,0,1,6,3.46Z" transform="translate(-164.34 -336.76)"/><path class="cls-2" d="M204.61,351.89l-4.2-12.28a54.38,54.38,0,0,1,6.73-1.82l2.54,12.73A39.15,39.15,0,0,0,204.61,351.89Z" transform="translate(-164.34 -336.76)"/><path class="cls-3" d="M230.5,351.81a41.69,41.69,0,0,0-5.08-1.34l2.47-12.73a51.53,51.53,0,0,1,6.75,1.78Z" transform="translate(-164.34 -336.76)"/><path class="cls-5" d="M214.91,349.82,214,336.88a53.53,53.53,0,0,1,6.94,0l-.78,12.95A42.41,42.41,0,0,0,214.91,349.82Z" transform="translate(-164.34 -336.76)"/><polygon class="cls-5" points="49.07 88.08 49.07 111.02 64.87 100.42 49.07 88.08"/></svg>