<svg id="Layer_1" data-name="Layer 1" xmlns="http://www.w3.org/2000/svg" xmlns:xlink="http://www.w3.org/1999/xlink" viewBox="0 0 14.96 14.94"><defs><style>.cls-1{fill:none;}.cls-2{clip-path:url(#clip-path);}.cls-3{fill:#aa182c;}.cls-4{fill:#ff6c0e;}.cls-5{fill:#b8d8eb;}.cls-6{fill:#cf3339;}</style><clipPath id="clip-path" transform="translate(0 0)"><rect class="cls-1" width="14.96" height="14.94"/></clipPath></defs><title>color burst</title><g class="cls-2"><path class="cls-3" d="M7.25,14.94a6.84,6.84,0,0,1-.9-.08l.4-2.67.58.05Z" transform="translate(0 0)"/><path class="cls-4" d="M8.74,14.84l-.46-2.67A5.07,5.07,0,0,0,8.84,12l.77,2.59a6.48,6.48,0,0,1-.87.21" transform="translate(0 0)"/><path class="cls-5" d="M4.9,14.49a6.71,6.71,0,0,1-.83-.36l1.24-2.41a4.83,4.83,0,0,0,.52.23Z" transform="translate(0 0)"/><path class="cls-6" d="M11,14.07,9.72,11.68a4,4,0,0,0,.49-.3l1.56,2.21a7,7,0,0,1-.77.48" transform="translate(0 0)"/><path class="cls-6" d="M2.82,13.32a7.73,7.73,0,0,1-.67-.6l1.92-1.9c.14.13.28.26.43.38Z" transform="translate(0 0)"/><path class="cls-5" d="M12.9,12.62l-2-1.87a3.91,3.91,0,0,0,.37-.44l2.17,1.62a7.83,7.83,0,0,1-.58.69" transform="translate(0 0)"/><path class="cls-4" d="M1.21,11.56a6.06,6.06,0,0,1-.45-.78L3.19,9.57a4,4,0,0,0,.28.5Z" transform="translate(0 0)"/><path class="cls-3" d="M14.25,10.65,11.8,9.5A5,5,0,0,0,12,9l2.57.85a6.1,6.1,0,0,1-.33.84" transform="translate(0 0)"/><path class="cls-3" d="M.23,9.37a8.06,8.06,0,0,1-.17-.88l2.68-.37a5,5,0,0,0,.11.56Z" transform="translate(0 0)"/><path class="cls-4" d="M14.91,8.35,12.22,8a5.46,5.46,0,0,0,0-.57H15a6.73,6.73,0,0,1-.05.89" transform="translate(0 0)"/><path class="cls-5" d="M2.7,7.16,0,7a6.56,6.56,0,0,1,.11-.89l2.66.48a5.54,5.54,0,0,0-.07.57" transform="translate(0 0)"/><path class="cls-6" d="M12.24,6.72a3.4,3.4,0,0,0-.08-.57l2.66-.53a6.57,6.57,0,0,1,.12.89Z" transform="translate(0 0)"/><path class="cls-6" d="M3,5.68l-2.52-1a6,6,0,0,1,.39-.81l2.37,1.3A4.9,4.9,0,0,0,3,5.68" transform="translate(0 0)"/><path class="cls-5" d="M11.91,5.49A4,4,0,0,0,11.66,5L14,3.63a7.61,7.61,0,0,1,.4.81Z" transform="translate(0 0)"/><path class="cls-4" d="M3.82,4.37,1.75,2.62A7.76,7.76,0,0,1,2.38,2L4.22,4a3.89,3.89,0,0,0-.4.41" transform="translate(0 0)"/><path class="cls-3" d="M11.08,4.31a5.29,5.29,0,0,0-.41-.41l1.81-2a5.43,5.43,0,0,1,.63.64Z" transform="translate(0 0)"/><path class="cls-3" d="M5,3.38,3.57,1.07A6,6,0,0,1,4.36.65L5.49,3.11A4.11,4.11,0,0,0,5,3.38" transform="translate(0 0)"/><path class="cls-4" d="M9.9,3.33c-.16-.09-.33-.18-.51-.26L10.47.59a7.68,7.68,0,0,1,.81.41Z" transform="translate(0 0)"/><path class="cls-5" d="M6.39,2.8,5.78.16A6.61,6.61,0,0,1,6.67,0L7,2.7a4.82,4.82,0,0,0-.57.1" transform="translate(0 0)"/><path class="cls-6" d="M8.48,2.78a3.4,3.4,0,0,0-.57-.08L8.16,0a8.67,8.67,0,0,1,.89.13Z" transform="translate(0 0)"/></g></svg>